<svg width="66" height="40" viewBox="0 0 66 40" fill="none" xmlns="http://www.w3.org/2000/svg">
<path d="M53.739 14.3318C52.4732 14.3318 51.2518 14.5323 50.1022 14.9031L45.9172 3.57861H54.044C55.492 3.57861 56.6706 4.80112 56.6706 6.30477C56.6706 7.80842 55.4927 9.03094 54.044 9.03094C53.6032 9.03094 53.2452 9.40176 53.2452 9.86001C53.2452 10.3183 53.6025 10.6891 54.044 10.6891C56.3729 10.6891 58.2675 8.72267 58.2675 6.30553C58.2675 3.88838 56.3729 1.92196 54.044 1.92196H44.756C44.7037 1.92196 44.6587 1.94306 44.6093 1.95286C44.5628 1.9619 44.5163 1.95889 44.4706 1.97698C44.4662 1.97849 44.4641 1.98225 44.4597 1.98376C44.3972 2.01014 44.3457 2.0531 44.292 2.0938C44.2614 2.11717 44.2244 2.13224 44.1975 2.15937C44.1605 2.19706 44.138 2.24605 44.1089 2.29052C44.0806 2.33348 44.045 2.37192 44.0254 2.41941C44.0102 2.45634 44.0095 2.4993 43.9986 2.53924C43.9819 2.60482 43.9615 2.66813 43.9601 2.73672C43.9601 2.74124 43.9572 2.74501 43.9572 2.75028C43.9572 2.80304 43.9768 2.84902 43.9862 2.89952C43.9949 2.94926 43.992 2.99901 44.0102 3.048L46.066 8.61112L25.6448 9.00757L23.4081 1.65816H28.0035C28.4443 1.65816 28.8023 1.28733 28.8023 0.82908C28.8023 0.370825 28.445 0 28.0035 0H18.7917C18.3509 0 17.9929 0.370825 17.9929 0.82908C17.9929 1.28733 18.3502 1.65816 18.7917 1.65816H21.7335L24.1161 9.48693L19.4554 16.1248C17.5579 14.8729 15.314 14.1373 12.9037 14.1373C6.14288 14.1366 0.6427 19.8459 0.6427 26.8637C0.6427 33.8807 6.14288 39.5893 12.9037 39.5893C19.3952 39.5893 24.7102 34.3224 25.1248 27.692H26.9882C27.1611 28.5859 27.6941 29.3396 28.4188 29.8016L27.6396 32.5188C27.514 32.9574 27.7544 33.4187 28.177 33.5491C28.2533 33.5724 28.3295 33.5837 28.405 33.5837C28.7493 33.5837 29.0666 33.3516 29.1697 32.9913L29.9482 30.2765C29.978 30.2772 30.0063 30.2855 30.0361 30.2855C31.7513 30.2855 33.1463 28.8376 33.1463 27.0574C33.1463 26.5027 32.9982 25.9879 32.76 25.5311L46.7871 10.5625L48.6157 15.5106C44.4089 17.5298 41.4772 21.9397 41.4772 27.0574C41.4772 34.0744 46.9774 39.783 53.7383 39.783C60.4991 39.783 66 34.0744 66 27.0574C66 20.0404 60.4998 14.3318 53.739 14.3318ZM24.7138 11.4496L28.5982 24.2121C27.8967 24.5965 27.3579 25.244 27.1015 26.0346H25.1248C24.9004 22.4507 23.2534 19.2648 20.7502 17.0949L24.7138 11.4496ZM23.5279 26.0346H14.4738L19.8055 18.4402C21.9129 20.3034 23.3093 22.9994 23.5279 26.0346ZM12.9037 37.9319C7.02375 37.9319 2.2396 32.9665 2.2396 26.8637C2.2396 20.7594 7.02375 15.7947 12.9037 15.7947C14.9632 15.7947 16.8811 16.4135 18.5128 17.4672L12.2581 26.376C12.081 26.6278 12.0555 26.9617 12.1921 27.2398C12.3279 27.5179 12.6031 27.6928 12.9037 27.6928H23.5272C23.1169 33.4081 18.515 37.9319 12.9037 37.9319ZM30.0368 28.6289C29.2024 28.6289 28.5234 27.9241 28.5234 27.0581C28.5234 26.1921 29.2024 25.4874 30.0368 25.4874C30.8712 25.4874 31.5502 26.1921 31.5502 27.0581C31.5502 27.9234 30.8712 28.6289 30.0368 28.6289ZM31.6678 24.3207C31.6642 24.3184 31.6606 24.3169 31.6577 24.3146L32.4369 21.596C32.5625 21.1574 32.3221 20.6961 31.8995 20.5657C31.4768 20.4338 31.0324 20.684 30.9068 21.1234L30.1435 23.7848L26.1466 10.6552L44.8134 10.2926L31.6678 24.3207ZM53.739 38.1256C47.859 38.1256 43.0748 33.1602 43.0748 27.0574C43.0748 22.6444 45.5817 18.8382 49.1901 17.0617L52.9939 27.3543C53.1159 27.6837 53.4187 27.8857 53.7397 27.8857C53.8348 27.8857 53.9314 27.8676 54.0258 27.8307C54.4376 27.6671 54.6431 27.187 54.4855 26.7597L50.6774 16.4595C51.6483 16.1565 52.6744 15.9892 53.739 15.9892C59.619 15.9892 64.4031 20.9546 64.4031 27.0574C64.4031 33.1602 59.619 38.1256 53.739 38.1256Z" fill="white"/>
</svg>
