<svg width="18" height="18" viewBox="0 0 18 18" fill="none" xmlns="http://www.w3.org/2000/svg">
<path d="M16.68 3.809L2.25 1.976V0.5C2.25 0.224 2.026 0 1.75 0H0.5C0.224 0 0 0.224 0 0.5C0 0.776 0.224 1 0.5 1H1.25V2.417V8.667V10.583V12.25C1.25 13.335 1.949 14.251 2.916 14.596C2.658 14.943 2.5 15.368 2.5 15.833C2.5 16.981 3.435 17.916 4.583 17.916C5.731 17.916 6.666 16.981 6.666 15.833C6.666 15.435 6.548 15.067 6.354 14.75H14.147C13.953 15.067 13.835 15.435 13.835 15.833C13.835 16.981 14.769 17.916 15.918 17.916C17.067 17.916 18 16.981 18 15.833C18 14.685 17.065 13.75 15.917 13.75H3.75C2.923 13.75 2.25 13.077 2.25 12.25V11.083H16.49C17.323 11.083 18 10.405 18 9.573V5.307C18 4.547 17.432 3.903 16.68 3.809ZM5.666 15.833C5.666 16.431 5.18 16.916 4.583 16.916C3.986 16.916 3.5 16.431 3.5 15.833C3.5 15.235 3.986 14.75 4.583 14.75C5.18 14.75 5.666 15.235 5.666 15.833ZM17 15.833C17 16.431 16.514 16.916 15.917 16.916C15.32 16.916 14.834 16.431 14.834 15.833C14.834 15.235 15.32 14.75 15.917 14.75C16.514 14.75 17 15.235 17 15.833ZM17 9.573C17 9.854 16.771 10.083 16.49 10.083H2.25V8.667V2.984L16.554 4.8C16.809 4.833 17 5.05 17 5.307V9.573Z" fill="white"/>
</svg>
