<svg width="38" height="46" viewBox="0 0 38 46" fill="none" xmlns="http://www.w3.org/2000/svg">
<path fill-rule="evenodd" clip-rule="evenodd" d="M19 0C12.929 0 8 4.929 8 11C8 17.071 12.929 22 19 22C25.071 22 30 17.071 30 11C30 4.929 25.071 0 19 0ZM19 2C23.967 2 28 6.033 28 11C28 15.967 23.967 20 19 20C14.033 20 10 15.967 10 11C10 6.033 14.033 2 19 2Z" fill="white"/>
<path fill-rule="evenodd" clip-rule="evenodd" d="M19 24C8.507 24 0 32.507 0 43V45C0 45.552 0.448 46 1 46C1.552 46 2 45.552 2 45V43C2 33.611 9.611 26 19 26C23.509 26 27.833 27.791 31.021 30.979C34.209 34.167 36 38.491 36 43V45C36 45.552 36.448 46 37 46C37.552 46 38 45.552 38 45V43C38 37.961 35.998 33.128 32.435 29.565C28.872 26.002 24.039 24 19 24Z" fill="white"/>
</svg>
